# xmcd
#
# Track frame offsets:
#	150
#	12782
#	26352
#	39180
#	51455
#	63717
#	74925
#	88540
#	101577
#	114277
#	128170
#	139105
#	152600
#	165492
#	178682
#	192012
#	204932
#	218732
#	231332
#	243187
#	254875
#	267265
#	280267
#	291892
#	305035
#	317215
#
# Disc length: 4386
#
# Revision: 1
# Processed by: cddbd v1.5.1PL0 Copyright (c) Steve Scherf et al.
# Submitted via: dBpowerAMP V4.0
# Normalized: r0:TDELIM( - )
#
DISCID=8011201a
DTITLE=Various Artist - Motown - Mid Sixties Volume 3 - Movin' On Up - 1965
DYEAR=1900
DGENRE=Motown
TTITLE0=Smokey Robinson and The Miracles - Ooh Baby Baby
TTITLE1=Contours - First I Look At The Purse
TTITLE2=Jr Walker and The All Stars - (I'm A) Road Runner
TTITLE3=Jr Walker and The All Stars - Shake and Fingerpop
TTITLE4=Rour Tops - I Can't Help Myself (Sugar Pie, Honey Bunch)
TTITLE5=Marvelettes - I'll Keep Holding On
TTITLE6=Marvin Gaye - Ain't That Peculiar
TTITLE7=Temptations - Since I Lost My Baby
TTITLE8=Four Tops - It's The Same Old Song
TTITLE9=Martha Reeves and The Vandellas - My Baby Loves Me
TTITLE10=Marvelettes - Fanger Heartbreak Dead Ahead
TTITLE11=Martha Reeves and The Vandellas - My Baby Loves Me
TTITLE12=Marvelettes - Don't Mess With Bill
TTITLE13=Diana Ross and The Supemes - Love Is Like An Itching In My Heart
TTITLE14=Jimmy Ruffin - What Becomes Of The Broken Hearted
TTITLE15=Smokey Robinson and The Miracles - My Girl Has Gone
TTITLE16=Temptations - My Baby
TTITLE17=Smokey Robinson and The Miracles - Going To A Go Go
TTITLE18=Kim Weston - Helpless
TTITLE19=Tammi Terrell - I Can't Belive You Love Me
TTITLE20=Diana Ross and The Supremes - I Hear A Symphony
TTITLE21=Isley Brothers - This Old Heart Of Mine (Is Weak For You)
TTITLE22=Temptations - Ain't To Proud To Beg
TTITLE23=Stevie Wonder - Uptight (Everything's Alright)
TTITLE24=Four Tops - Shake Me, Wake Me (When It's Over)
TTITLE25=Elgins - Heaven Must Have Sent You
EXTD=tim1701
EXTT0=
EXTT1=
EXTT2=
EXTT3=
EXTT4=
EXTT5=
EXTT6=
EXTT7=
EXTT8=
EXTT9=
EXTT10=
EXTT11=
EXTT12=
EXTT13=
EXTT14=
EXTT15=
EXTT16=
EXTT17=
EXTT18=
EXTT19=
EXTT20=
EXTT21=
EXTT22=
EXTT23=
EXTT24=
EXTT25=
PLAYORDER=
